<svg version="1.0" xmlns="http://www.w3.org/2000/svg" width="744" height="744" viewBox="0 0 558 558"><path d="M108 277.5v116.6l76.8-.3c85.4-.4 80.9 0 96.1-7.5 10.1-4.9 19.2-14.1 24.7-24.8 5.9-11.5 6.9-16 6.9-31-.1-10.8-.4-14-2.3-19.2-6.4-18-19.9-31.6-36-36.4l-4.3-1.3 6.2-2.3c22.3-8.4 35.4-32.9 31.8-59.1-2.7-19-15-35.9-32.3-44.1-14.1-6.7-10.5-6.5-92.8-6.8l-74.8-.4v116.6zM236.9 214c7.8 3.9 10.8 10.1 9.9 20-.6 6-4.2 11.2-9.8 14-3.7 1.9-5.9 2-36.5 2H168v-38h32.5c30.4 0 32.8.1 36.4 2zm3.6 90.1c3 1.5 6.2 4.2 8 6.8 2.7 3.8 3 5.1 3 11.6s-.3 7.8-3 11.7c-1.9 2.7-4.8 5.2-8 6.8l-5 2.5h-67l-.3-21.3-.2-21.4 33.8.4 33.8.3 4.9 2.6zm76.4-126.8c-6.8 4.5-7.2 14.8-.8 20.1 2.5 2.2 4.1 2.6 9.1 2.6 5.5 0 6.3-.3 9.4-3.4 3.3-3.3 3.9-5.4 3.4-11.5-.7-8.7-13-13.3-21.1-7.8zm10.7 4.5c6.3 4.2 1.2 14.9-5.4 11.3-4.9-2.6-2.7-12.1 2.8-12.1.8 0 2 .4 2.6.8zm15.4 3.5c0 12.8 1 14.7 7.6 14.7 2.5 0 5.5-.5 6.7-1.1 1.6-.9 2.2-.9 2.5 0 .2.6 2.1 1.1 4.3 1.1h3.9v-8.8c0-4.8-.3-10.4-.6-12.5-.6-3.4-.9-3.7-4-3.7H360v8.5c0 8.2-.1 8.6-2.6 9.7-4.6 2.1-5.9.3-6.2-9.6l-.3-8.6H343v10.3zm31 2.2V200h8v-8.5c0-8.2.1-8.6 2.6-9.7 4.6-2.1 5.9-.3 6.2 9.6l.3 8.6h8.1l-.4-10.4c-.2-8.5-.6-10.8-2.2-12.5-2.3-2.6-9.1-2.9-12.4-.5-2 1.4-2.2 1.4-2.2 0 0-1.2-1-1.6-4-1.6h-4v12.5zm35.4-10.6c-3.8 2.3-4.4 3.2-5.4 7.8-1.1 4.7.5 9.7 4.1 12.7 2.5 2.1 4.1 2.6 8.7 2.6 3.9 0 6.4-.6 8-1.8l2.3-1.8-2.6-2.4c-1.9-1.8-2.8-2.1-3.7-1.2-2 2-5.5 1.3-7.7-1.4-2.7-3.4-2.6-4.7.3-8.1 2.3-2.6 2.6-2.7 5.7-1.6 3.1 1.2 3.6 1.1 5.8-1.1l2.4-2.4-3.1-1.6c-4.2-2.2-11-2-14.8.3zm25.5.4c-6.8 4.5-7.2 14.8-.8 20.1 2.5 2.1 4.1 2.6 8.4 2.6 5 0 10.5-1.5 10.5-2.9 0-.3-.6-1.4-1.4-2.3-1.1-1.5-1.9-1.6-5-.7-3 .8-4.2.7-6.2-.6-4.2-2.7-2.8-3.5 6.1-3.5h8.5v-3c0-10-11.5-15.5-20.1-9.7zm11.6 4.7c2.4 2.7 1.7 3.2-4.6 2.8l-5.4-.3 2.3-2.3c2.7-2.7 5.3-2.8 7.7-.2zm-10 40.6c-9.2 2.2-23.1 9.6-31 16.5l-7 6-.3-10-.3-10.1H345v169h53V286.7l3.6-3.4c4.5-4.2 8.9-6.4 18.4-9.4 6.1-2 9.7-2.4 19.3-2.4H451V221l-4.2.1c-2.4 0-7 .7-10.3 1.5z"/></svg>