<svg xmlns="http://www.w3.org/2000/svg">

  <symbol id="user" viewBox="0 0 16 16">
    <path
      d="M431.887,365.343a8.083,8.083,0,0,0-4.436-4.613,4.882,4.882,0,0,0,1.782-3.73,5.06,5.06,0,0,0-4.615-4.962,4.993,4.993,0,0,0-1.229,0A5.06,5.06,0,0,0,418.777,357a4.879,4.879,0,0,0,1.782,3.73,8.082,8.082,0,0,0-4.437,4.613,1.931,1.931,0,0,0,.271,1.816A2.123,2.123,0,0,0,418.1,368h11.82a2.12,2.12,0,0,0,1.7-.841,1.925,1.925,0,0,0,.265-1.816ZM420.868,357a3.043,3.043,0,0,1,2.814-2.98,2.638,2.638,0,0,1,.649,0,3.009,3.009,0,1,1-3.462,2.98Zm-2.772,9a6.366,6.366,0,0,1,11.82,0H418.1Z"
      transform="translate(-416.005 -352)" fill-rule="evenodd" />
  </symbol>


  <symbol id="cart" viewBox="0 0 16 16">
    <path
      d="M303.533,516.676a2,2,0,0,0-1.5-.676h-.219L301,512.757a1,1,0,0,0-.969-.757h-8a1,1,0,0,0-.971.757l-.81,3.243h-.219a2,2,0,0,0-1.984,2.248l1,8A2,2,0,0,0,291.034,528h10a2,2,0,0,0,1.985-1.752l1-8a2,2,0,0,0-.486-1.572ZM292.815,514h6.44l.5,2h-7.439Zm-1.781,12-1-8h12l-1,8h-10Zm3-6a1,1,0,0,0-1,1v2a.993.993,0,0,0,.49.887,1,1,0,0,0,1.018,0,.993.993,0,0,0,.49-.887v-2A1,1,0,0,0,294.037,520Zm4,0a1,1,0,0,0-1,1v2a1,1,0,0,0,2,0v-2a1,1,0,0,0-1-1Z"
      transform="translate(-288.035 -512)" fill-rule="evenodd" />
  </symbol>


  <symbol id="search" viewBox="0 0 16 16">
    <path
      d="M495.682,654.371l-4.823-4.849a5.983,5.983,0,1,0-4.879,2.543,5.926,5.926,0,0,0,3.469-1.121l4.823,4.849a1,1,0,0,0,1.414,0A1.006,1.006,0,0,0,495.682,654.371Zm-9.7-4.317a4.022,4.022,0,1,1,4-4.022A4.02,4.02,0,0,1,485.98,650.055Z"
      transform="translate(-479.978 -640.088)" fill-rule="evenodd" />
  </symbol>

  <symbol id="heart" viewBox="0 0 16 14">
    <path
      d="M587,579a3,3,0,0,1,2.24,4.99c-.55.62-5.24,5.01-5.24,5.01s-4.7-4.39-5.25-5.02A2.965,2.965,0,0,1,578,582a3,3,0,0,1,6,0,3,3,0,0,1,3-3m0-2a4.973,4.973,0,0,0-3,1,5,5,0,0,0-6.746,7.3c.562.644,4.261,4.108,5.381,5.154a2,2,0,0,0,2.732,0c1.116-1.045,4.8-4.5,5.369-5.143A5,5,0,0,0,587,577Z"
      transform="translate(-576.017 -577)" fill-rule="evenodd" />
  </symbol>

  <symbol id="cart-2" viewBox="0 0 16 16">
    <path
      d="M428.932,523a1.993,1.993,0,0,0,1.952-1.608l1-5A2,2,0,0,0,429.927,514h-9.956v-1a1,1,0,0,0-1-1H416.98a1,1,0,0,0,0,2h1v10a2,2,0,1,0,1.991,2h6.969a1.992,1.992,0,1,0,1.992-2h-8.961v-1Zm1-7-1,5h-8.961v-5h9.956Z"
      transform="translate(-415.971 -512)" fill-rule="evenodd" />
  </symbol>

  <symbol id="facebook" viewBox="0 0 8 15">
    <path
      d="M126.926,8.058h1.658v6.828a.244.244,0,0,0,.244.244h2.812a.244.244,0,0,0,.244-.244V8.09h1.907a.244.244,0,0,0,.242-.216l.29-2.514a.244.244,0,0,0-.242-.272h-2.2V3.513c0-.475.256-.716.76-.716h1.436a.244.244,0,0,0,.244-.244V.246A.244.244,0,0,0,134.081,0H132.1l-.091,0a3.792,3.792,0,0,0-2.48.935,2.6,2.6,0,0,0-.865,2.311V5.089h-1.741a.244.244,0,0,0-.244.244V7.814A.244.244,0,0,0,126.926,8.058Z"
      transform="translate(-126.682)" />
  </symbol>

  <symbol id="twitter" viewBox="0 0 15 12">
    <path
      d="M14.633,49.407a6.254,6.254,0,0,1-1.728.474,2.983,2.983,0,0,0,1.32-1.658,6,6,0,0,1-1.9.726A3,3,0,0,0,7.133,51a3.089,3.089,0,0,0,.07.684,8.491,8.491,0,0,1-6.183-3.138,3,3,0,0,0,.922,4.009,2.962,2.962,0,0,1-1.355-.369v.033a3.014,3.014,0,0,0,2.4,2.948,2.994,2.994,0,0,1-.787.1,2.652,2.652,0,0,1-.568-.051,3.028,3.028,0,0,0,2.8,2.09A6.028,6.028,0,0,1,.718,58.584,5.618,5.618,0,0,1,0,58.543a8.445,8.445,0,0,0,4.6,1.346,8.479,8.479,0,0,0,8.538-8.536c0-.133,0-.261-.011-.388A5.984,5.984,0,0,0,14.633,49.407Z"
      transform="translate(0 -48)" />
  </symbol>

  <symbol id="arrow-left" viewBox="0 0 14 24">
    <path
      d="M341.3,491.754l11.9,10.856a1,1,0,0,0,1.414-1.409L343.428,491l11.181-10.2a1,1,0,1,0-1.414-1.409l-11.9,10.857a1.147,1.147,0,0,0,0,1.509Z"
      transform="translate(-341.012 -479.097)" />
  </symbol>

  <symbol id="arrow-right" viewBox="0 0 14 24">
    <path
      d="M1578.717,491.744l-12.007,10.942a1.012,1.012,0,0,1-1.427,0,1,1,0,0,1,0-1.42l11.283-10.283L1565.283,480.7a1,1,0,0,1,0-1.42,1.012,1.012,0,0,1,1.427,0l7.924,7.221,4.083,3.721a1.155,1.155,0,0,1,0,1.521Z"
      transform="translate(-1564.988 -478.987)" />
  </symbol>

  <symbol id="filter-grid" viewBox="0 0 20 20">
    <g transform="translate(-1455 -705)">
      <rect width="4" height="4" transform="translate(1455 705)" />
      <rect width="4" height="4" transform="translate(1455 713)" />
      <rect width="4" height="4" transform="translate(1455 721)" />
      <rect width="4" height="4" transform="translate(1463 705)" />
      <rect width="4" height="4" transform="translate(1463 713)" />
      <rect width="4" height="4" transform="translate(1471 705)" />
      <rect width="4" height="4" transform="translate(1463 721)" />
      <rect width="4" height="4" transform="translate(1471 713)" />
      <rect width="4" height="4" transform="translate(1471 721)" />
    </g>
  </symbol>

  <symbol id="filter-line" viewBox="0 0 18 16">
    <g transform="translate(-1508.257 -713)">
      <rect width="18" height="2" transform="translate(1508.257 713)" />
      <rect width="18" height="2" transform="translate(1508.257 720)" />
      <rect width="18" height="2" transform="translate(1508.257 727)" />
    </g>
  </symbol>

  <symbol id="filter-sort" viewBox="0 0 511.627 511.627">
    <path
      d="M333.584,438.536h-73.087c-2.666,0-4.853,0.855-6.567,2.573c-1.709,1.711-2.568,3.901-2.568,6.564v54.815 c0,2.673,0.855,4.853,2.568,6.571c1.715,1.711,3.901,2.566,6.567,2.566h73.087c2.666,0,4.856-0.855,6.563-2.566 c1.718-1.719,2.563-3.898,2.563-6.571v-54.815c0-2.663-0.846-4.854-2.563-6.564C338.44,439.392,336.25,438.536,333.584,438.536z" />
    <path
      d="M196.54,401.991h-54.817V9.136c0-2.663-0.854-4.856-2.568-6.567C137.441,0.859,135.254,0,132.587,0H77.769 c-2.663,0-4.856,0.855-6.567,2.568c-1.709,1.715-2.568,3.905-2.568,6.567v392.855H13.816c-4.184,0-7.04,1.902-8.564,5.708 c-1.525,3.621-0.855,6.95,1.997,9.996l91.361,91.365c2.094,1.707,4.281,2.562,6.567,2.562c2.474,0,4.665-0.855,6.567-2.562 l91.076-91.078c1.906-2.279,2.856-4.571,2.856-6.844c0-2.676-0.859-4.859-2.568-6.584 C201.395,402.847,199.208,401.991,196.54,401.991z" />
    <path
      d="M388.4,292.362H260.494c-2.666,0-4.853,0.855-6.567,2.566c-1.71,1.711-2.568,3.901-2.568,6.563v54.823 c0,2.662,0.855,4.853,2.568,6.563c1.714,1.711,3.901,2.566,6.567,2.566H388.4c2.666,0,4.855-0.855,6.563-2.566 c1.715-1.711,2.573-3.901,2.573-6.563v-54.823c0-2.662-0.858-4.853-2.573-6.563C393.256,293.218,391.066,292.362,388.4,292.362z" />
    <path
      d="M504.604,2.568C502.889,0.859,500.702,0,498.036,0H260.497c-2.666,0-4.853,0.855-6.567,2.568 c-1.709,1.715-2.568,3.905-2.568,6.567v54.818c0,2.666,0.855,4.853,2.568,6.567c1.715,1.709,3.901,2.568,6.567,2.568h237.539 c2.666,0,4.853-0.855,6.567-2.568c1.711-1.714,2.566-3.901,2.566-6.567V9.136C507.173,6.473,506.314,4.279,504.604,2.568z" />
    <path
      d="M443.22,146.181H260.494c-2.666,0-4.853,0.855-6.567,2.57c-1.71,1.713-2.568,3.9-2.568,6.567v54.816 c0,2.667,0.855,4.854,2.568,6.567c1.714,1.711,3.901,2.57,6.567,2.57H443.22c2.663,0,4.853-0.855,6.57-2.57 c1.708-1.713,2.563-3.9,2.563-6.567v-54.816c0-2.667-0.855-4.858-2.563-6.567C448.069,147.04,445.879,146.181,443.22,146.181z" />
  </symbol>

  <symbol id="plus" viewBox="0 0 8 8">
    <g transform="translate(-852 -649)">
      <rect data-name="Rectangle 11 copy 3" width="8" height="2" transform="translate(852 652)" />
      <rect data-name="Rectangle 11 copy 3" width="8" height="2" transform="translate(857 649) rotate(90)" />
    </g>
  </symbol>

  <symbol id="minus" viewBox="0 0 8 2">
    <rect width="8" height="2" />
  </symbol>

  <symbol id="up" viewBox="0 0 11.414 7.121">
    <path d="M17505.047,3423.174l3.438-3.437,1.563-1.562,1.25,1.25,3.75,3.75" transform="translate(-17504.34 -3416.76)" stroke-width="2"/>
  </symbol>

  <symbol id="down" viewBox="0 0 11.414 7.121">
    <path d="M17505.047,3423.174l5-5,5,5" transform="translate(17515.754 3423.881) rotate(180)" stroke-width="2"/>
  </symbol>

  <symbol id="">

  </symbol>
</svg>