<svg xmlns="http://www.w3.org/2000/svg"><symbol id="user" viewBox="0 0 16 16"><path d="M431.887 365.343a8.083 8.083 0 00-4.436-4.613 4.882 4.882 0 001.782-3.73 5.06 5.06 0 00-4.615-4.962 4.993 4.993 0 00-1.229 0 5.06 5.06 0 00-4.612 4.962 4.879 4.879 0 001.782 3.73 8.082 8.082 0 00-4.437 4.613 1.931 1.931 0 00.271 1.816 2.123 2.123 0 001.707.841h11.82a2.12 2.12 0 001.7-.841 1.925 1.925 0 00.265-1.816zM420.868 357a3.043 3.043 0 012.814-2.98 2.638 2.638 0 01.649 0 3.009 3.009 0 11-3.462 2.98zm-2.772 9a6.366 6.366 0 0111.82 0H418.1z" transform="translate(-416.005 -352)" fill-rule="evenodd"/></symbol><symbol id="cart" viewBox="0 0 16 16"><path d="M303.533 516.676a2 2 0 00-1.5-.676h-.219l-.814-3.243a1 1 0 00-.969-.757h-8a1 1 0 00-.971.757l-.81 3.243h-.219a2 2 0 00-1.984 2.248l1 8a2 2 0 001.987 1.752h10a2 2 0 001.985-1.752l1-8a2 2 0 00-.486-1.572zM292.815 514h6.44l.5 2h-7.439zm-1.781 12l-1-8h12l-1 8h-10zm3-6a1 1 0 00-1 1v2a.993.993 0 00.49.887 1 1 0 001.018 0 .993.993 0 00.49-.887v-2a1 1 0 00-.995-1zm4 0a1 1 0 00-1 1v2a1 1 0 002 0v-2a1 1 0 00-1-1z" transform="translate(-288.035 -512)" fill-rule="evenodd"/></symbol><symbol id="search" viewBox="0 0 16 16"><path d="M495.682 654.371l-4.823-4.849a5.983 5.983 0 10-4.879 2.543 5.926 5.926 0 003.469-1.121l4.823 4.849a1 1 0 001.414 0 1.006 1.006 0 00-.004-1.422zm-9.7-4.317a4.022 4.022 0 114-4.022 4.02 4.02 0 01-4.002 4.023z" transform="translate(-479.978 -640.088)" fill-rule="evenodd"/></symbol><symbol id="heart" viewBox="0 0 16 14"><path d="M587 579a3 3 0 012.24 4.99c-.55.62-5.24 5.01-5.24 5.01s-4.7-4.39-5.25-5.02A2.965 2.965 0 01578 582a3 3 0 016 0 3 3 0 013-3m0-2a4.973 4.973 0 00-3 1 5 5 0 00-6.746 7.3c.562.644 4.261 4.108 5.381 5.154a2 2 0 002.732 0c1.116-1.045 4.8-4.5 5.369-5.143A5 5 0 00587 577z" transform="translate(-576.017 -577)" fill-rule="evenodd"/></symbol><symbol id="cart-2" viewBox="0 0 16 16"><path d="M428.932 523a1.993 1.993 0 001.952-1.608l1-5a2 2 0 00-1.957-2.392h-9.956v-1a1 1 0 00-1-1h-1.991a1 1 0 000 2h1v10a2 2 0 101.991 2h6.969a1.992 1.992 0 101.992-2h-8.961v-1zm1-7l-1 5h-8.961v-5h9.956z" transform="translate(-415.971 -512)" fill-rule="evenodd"/></symbol><symbol id="facebook" viewBox="0 0 8 15"><path d="M126.926 8.058h1.658v6.828a.244.244 0 00.244.244h2.812a.244.244 0 00.244-.244V8.09h1.907a.244.244 0 00.242-.216l.29-2.514a.244.244 0 00-.242-.272h-2.2V3.513c0-.475.256-.716.76-.716h1.436a.244.244 0 00.244-.244V.246a.244.244 0 00-.24-.246h-2.072a3.792 3.792 0 00-2.48.935 2.6 2.6 0 00-.865 2.311v1.843h-1.741a.244.244 0 00-.244.244v2.481a.244.244 0 00.247.244z" transform="translate(-126.682)"/></symbol><symbol id="twitter" viewBox="0 0 15 12"><path d="M14.633 49.407a6.254 6.254 0 01-1.728.474 2.983 2.983 0 001.32-1.658 6 6 0 01-1.9.726A3 3 0 007.133 51a3.089 3.089 0 00.07.684 8.491 8.491 0 01-6.183-3.138 3 3 0 00.922 4.009 2.962 2.962 0 01-1.355-.369v.033a3.014 3.014 0 002.4 2.948 2.994 2.994 0 01-.787.1 2.652 2.652 0 01-.568-.051 3.028 3.028 0 002.8 2.09 6.028 6.028 0 01-3.714 1.278A5.618 5.618 0 010 58.543a8.445 8.445 0 004.6 1.346 8.479 8.479 0 008.538-8.536c0-.133 0-.261-.011-.388a5.984 5.984 0 001.506-1.558z" transform="translate(0 -48)"/></symbol><symbol id="arrow-left" viewBox="0 0 14 24"><path d="M341.3 491.754l11.9 10.856a1 1 0 001.414-1.409L343.428 491l11.181-10.2a1 1 0 10-1.414-1.409l-11.9 10.857a1.147 1.147 0 000 1.509z" transform="translate(-341.012 -479.097)"/></symbol><symbol id="arrow-right" viewBox="0 0 14 24"><path d="M1578.717 491.744l-12.007 10.942a1.012 1.012 0 01-1.427 0 1 1 0 010-1.42l11.283-10.283-11.283-10.283a1 1 0 010-1.42 1.012 1.012 0 011.427 0l7.924 7.221 4.083 3.721a1.155 1.155 0 010 1.521z" transform="translate(-1564.988 -478.987)"/></symbol><symbol id="filter-grid" viewBox="0 0 20 20"><path d="M0 0h4v4H0z"/><path transform="translate(0 8)" d="M0 0h4v4H0z"/><path transform="translate(0 16)" d="M0 0h4v4H0z"/><path transform="translate(8)" d="M0 0h4v4H0z"/><path transform="translate(8 8)" d="M0 0h4v4H0z"/><path transform="translate(16)" d="M0 0h4v4H0z"/><path transform="translate(8 16)" d="M0 0h4v4H0z"/><path transform="translate(16 8)" d="M0 0h4v4H0z"/><path transform="translate(16 16)" d="M0 0h4v4H0z"/></symbol><symbol id="filter-line" viewBox="0 0 18 16"><path d="M0 0h18v2H0z"/><path transform="translate(0 7)" d="M0 0h18v2H0z"/><path transform="translate(0 14)" d="M0 0h18v2H0z"/></symbol><symbol id="filter-sort" viewBox="0 0 511.627 511.627"><path d="M333.584 438.536h-73.087c-2.666 0-4.853.855-6.567 2.573-1.709 1.711-2.568 3.901-2.568 6.564v54.815c0 2.673.855 4.853 2.568 6.571 1.715 1.711 3.901 2.566 6.567 2.566h73.087c2.666 0 4.856-.855 6.563-2.566 1.718-1.719 2.563-3.898 2.563-6.571v-54.815c0-2.663-.846-4.854-2.563-6.564-1.707-1.717-3.897-2.573-6.563-2.573zM196.54 401.991h-54.817V9.136c0-2.663-.854-4.856-2.568-6.567C137.441.859 135.254 0 132.587 0H77.769c-2.663 0-4.856.855-6.567 2.568-1.709 1.715-2.568 3.905-2.568 6.567V401.99H13.816c-4.184 0-7.04 1.902-8.564 5.708-1.525 3.621-.855 6.95 1.997 9.996l91.361 91.365c2.094 1.707 4.281 2.562 6.567 2.562 2.474 0 4.665-.855 6.567-2.562l91.076-91.078c1.906-2.279 2.856-4.571 2.856-6.844 0-2.676-.859-4.859-2.568-6.584-1.713-1.706-3.9-2.562-6.568-2.562zM388.4 292.362H260.494c-2.666 0-4.853.855-6.567 2.566-1.71 1.711-2.568 3.901-2.568 6.563v54.823c0 2.662.855 4.853 2.568 6.563 1.714 1.711 3.901 2.566 6.567 2.566H388.4c2.666 0 4.855-.855 6.563-2.566 1.715-1.711 2.573-3.901 2.573-6.563v-54.823c0-2.662-.858-4.853-2.573-6.563-1.707-1.71-3.897-2.566-6.563-2.566zM504.604 2.568C502.889.859 500.702 0 498.036 0H260.497c-2.666 0-4.853.855-6.567 2.568-1.709 1.715-2.568 3.905-2.568 6.567v54.818c0 2.666.855 4.853 2.568 6.567 1.715 1.709 3.901 2.568 6.567 2.568h237.539c2.666 0 4.853-.855 6.567-2.568 1.711-1.714 2.566-3.901 2.566-6.567V9.136c.004-2.663-.855-4.857-2.565-6.568zM443.22 146.181H260.494c-2.666 0-4.853.855-6.567 2.57-1.71 1.713-2.568 3.9-2.568 6.567v54.816c0 2.667.855 4.854 2.568 6.567 1.714 1.711 3.901 2.57 6.567 2.57H443.22c2.663 0 4.853-.855 6.57-2.57 1.708-1.713 2.563-3.9 2.563-6.567v-54.816c0-2.667-.855-4.858-2.563-6.567-1.721-1.711-3.911-2.57-6.57-2.57z"/></symbol><symbol id="plus" viewBox="0 0 8 8"><path data-name="Rectangle 11 copy 3" transform="translate(0 3)" d="M0 0h8v2H0z"/><path data-name="Rectangle 11 copy 3" transform="rotate(90 2.5 2.5)" d="M0 0h8v2H0z"/></symbol><symbol id="minus" viewBox="0 0 8 2"><path d="M0 0h8v2H0z"/></symbol><symbol id="up" viewBox="0 0 11.414 7.121"><path d="M17505.047 3423.174l3.438-3.437 1.563-1.562 1.25 1.25 3.75 3.75" transform="translate(-17504.34 -3416.76)" stroke-width="2"/></symbol><symbol id="down" viewBox="0 0 11.414 7.121"><path d="M17505.047 3423.174l5-5 5 5" transform="rotate(180 8757.877 1711.94)" stroke-width="2"/></symbol></svg>