<?xml version="1.0" standalone="no"?>
<!DOCTYPE svg PUBLIC "-//W3C//DTD SVG 20010904//EN"
 "http://www.w3.org/TR/2001/REC-SVG-20010904/DTD/svg10.dtd">
<svg version="1.0" xmlns="http://www.w3.org/2000/svg"
 width="558.000000pt" height="558.000000pt" viewBox="0 0 558.000000 558.000000"
 preserveAspectRatio="xMidYMid meet">
<metadata>
Created by potrace 1.11, written by Peter Selinger 2001-2013
</metadata>
<g transform="translate(0.000000,558.000000) scale(0.100000,-0.100000)"
fill="#000000" stroke="none">
<path d="M1080 2805 l0 -1166 768 3 c854 4 809 0 961 75 101 49 192 141 247
248 59 115 69 160 69 310 -1 108 -4 140 -23 192 -64 180 -199 316 -360 364
l-43 13 62 23 c223 84 354 329 318 591 -27 190 -150 359 -323 441 -141 67
-105 65 -928 68 l-748 4 0 -1166z m1289 635 c78 -39 108 -101 99 -200 -6 -60
-42 -112 -98 -140 -37 -19 -59 -20 -365 -20 l-325 0 0 190 0 190 325 0 c304 0
328 -1 364 -20z m36 -901 c30 -15 62 -42 80 -68 27 -38 30 -51 30 -116 0 -65
-3 -78 -30 -117 -19 -27 -48 -52 -80 -68 l-50 -25 -335 0 -335 0 -3 213 -2
214 338 -4 338 -3 49 -26z"/>
<path d="M3169 3807 c-68 -45 -72 -148 -8 -201 25 -22 41 -26 91 -26 55 0 63
3 94 34 33 33 39 54 34 115 -7 87 -130 133 -211 78z m107 -45 c63 -42 12 -149
-54 -113 -49 26 -27 121 28 121 8 0 20 -4 26 -8z"/>
<path d="M3430 3727 c0 -128 10 -147 76 -147 25 0 55 5 67 11 16 9 22 9 25 0
2 -6 21 -11 43 -11 l39 0 0 88 c0 48 -3 104 -6 125 -6 34 -9 37 -40 37 l-34 0
0 -85 c0 -82 -1 -86 -26 -97 -46 -21 -59 -3 -62 96 l-3 86 -39 0 -40 0 0 -103z"/>
<path d="M3740 3705 l0 -125 40 0 40 0 0 85 c0 82 1 86 26 97 46 21 59 3 62
-96 l3 -86 40 0 41 0 -4 104 c-2 85 -6 108 -22 125 -23 26 -91 29 -124 5 -20
-14 -22 -14 -22 0 0 12 -10 16 -40 16 l-40 0 0 -125z"/>
<path d="M4094 3811 c-38 -23 -44 -32 -54 -78 -11 -47 5 -97 41 -127 25 -21
41 -26 87 -26 39 0 64 6 80 18 l23 18 -26 24 c-19 18 -28 21 -37 12 -20 -20
-55 -13 -77 14 -27 34 -26 47 3 81 23 26 26 27 57 16 31 -12 36 -11 58 11 l24
24 -31 16 c-42 22 -110 20 -148 -3z"/>
<path d="M4349 3807 c-68 -45 -72 -148 -8 -201 25 -21 41 -26 84 -26 50 0 105
15 105 29 0 3 -6 14 -14 23 -11 15 -19 16 -50 7 -30 -8 -42 -7 -62 6 -42 27
-28 35 61 35 l85 0 0 30 c0 100 -115 155 -201 97z m116 -47 c24 -27 17 -32
-46 -28 l-54 3 23 23 c27 27 53 28 77 2z"/>
<path d="M4365 3354 c-92 -22 -231 -96 -310 -165 l-70 -60 -3 100 -3 101 -264
0 -265 0 0 -845 0 -845 265 0 265 0 0 536 0 537 36 34 c45 42 89 64 184 94 61
20 97 24 193 24 l117 0 0 253 0 252 -42 -1 c-24 0 -70 -7 -103 -15z"/>
</g>
</svg>
