<svg xmlns="http://www.w3.org/2000/svg" width="38.304" height="25.142"><path d="M1.665 0h34.973a1.7 1.7 0 011.665 1.734v21.674a1.7 1.7 0 01-1.665 1.734H1.665A1.7 1.7 0 010 23.408V1.734A1.7 1.7 0 011.665 0z" fill="#5870be"/><path d="M16.755 12.567a8.979 8.979 0 118.98 8.981 8.98 8.98 0 01-8.98-8.981z" fill="#ffaf38"/><path d="M11.976 21.546a8.98 8.98 0 117.191-14.36h-1.2v.6h1.613c.121.191.235.389.341.589h-2.554v.6h2.843c.088.2.167.4.237.6h-3.68v.6h3.868a9.033 9.033 0 01-.192 5.389h-3.676v.6h3.439c-.09.207-.187.4-.285.591h-2.554v.6h2.206c-.133.21-.272.411-.413.6h-1.193v.6h.7a8.993 8.993 0 01-6.691 2.991z" fill="#e63737"/><text transform="rotate(7.313 -109.964 20.249)" fill="#fff" font-size="6" font-family="Arial-Black, Arial" font-weight="800" letter-spacing="-.075em"><tspan x="0" y="0">MasterCard</tspan></text></svg>