<svg xmlns="http://www.w3.org/2000/svg" width="38.043" height="25.142"><path d="M1.655 0H36.39a1.7 1.7 0 011.654 1.734v21.673a1.7 1.7 0 01-1.654 1.734H1.655a1.7 1.7 0 01-1.654-1.734V1.735A1.7 1.7 0 011.655 0z" fill="#f1f1f1"/><path d="M.413 24.55a1.78 1.78 0 01-.409-1.141V1.735A1.7 1.7 0 011.658 0h34.734a1.607 1.607 0 011.126.464L.418 24.55z" fill="rgba(255,255,255,0.73)"/><path d="M14.649 17.965l1.3-2.35-.724-5.644h1.771l.286 3.34 1.733-3.34h1.828l-4.209 7.994zm-5.553-4.216c.273-1.374 1.6-1.81 3.562-1.81.117-.611-.272-.764-.934-.741a4.868 4.868 0 00-1.694.393l.155-1.373a7.943 7.943 0 011.985-.349c1.226-.022 2.589.369 2.278 1.962l-.759 3.75h-1.771l.116-.568a2.223 2.223 0 01-1.582.676c-.839-.004-1.586-.55-1.355-1.944zm1.811-.087a.5.5 0 00.467.785.91.91 0 00.935-.742 4.2 4.2 0 01.1-.5h-.448a1.2 1.2 0 00-1.054.453zm-7.911 1.919L4.46 8.409h3.307a1.844 1.844 0 011.761 2.441 2.75 2.75 0 01-2.732 2.355H5.413l-.475 2.376zm2.693-3.75h.91a1.232 1.232 0 001.109-.981.719.719 0 00-.653-.98h-.95z" fill="#3284ae"/><path d="M26.313 13.745c.276-1.374 1.617-1.809 3.606-1.809.138-.612-.256-.763-.926-.741a5.225 5.225 0 00-1.734.392l.158-1.373a8.513 8.513 0 012.029-.348c1.241-.022 2.6.369 2.285 1.961l-.768 3.749H29.19l.118-.566a2.311 2.311 0 01-1.618.676c-.858-.001-1.614-.546-1.377-1.941zm1.833-.087a.509.509 0 00.493.785.9.9 0 00.926-.74c.039-.175.059-.328.1-.5h-.433a1.24 1.24 0 00-1.089.454zm3.636 1.918l1.466-7.194h1.82l-1.485 7.194zm-11.569 0l1.462-7.171h3.3a1.849 1.849 0 011.757 2.44 2.749 2.749 0 01-2.745 2.355h-1.363l-.494 2.375zm2.687-3.749h.888a1.252 1.252 0 001.127-.981.73.73 0 00-.671-.98h-.948z" fill="#3ca9c7"/></svg>