<svg xmlns="http://www.w3.org/2000/svg" width="38.33" height="25.142"><defs><linearGradient id="a" x1=".5" y1="1" x2=".5" gradientUnits="objectBoundingBox"><stop offset="0" stop-color="#e59703"/><stop offset=".231" stop-color="#e59703"/><stop offset=".234" stop-color="#fff"/><stop offset=".761" stop-color="#fff"/><stop offset=".766" stop-color="#5457bb"/><stop offset="1" stop-color="#5457bb"/></linearGradient></defs><path d="M1508.395 4889.874h35a1.7 1.7 0 011.667 1.734v21.674a1.7 1.7 0 01-1.667 1.734h-35a1.7 1.7 0 01-1.667-1.734v-21.674a1.7 1.7 0 011.667-1.734z" transform="translate(-1506.728 -4889.874)" fill="url(#a)"/><path d="M29.972 17.226l-.252-1.295h-2.734l-.449 1.295h-2.242l3.207-8.065a1 1 0 01.993-.649h1.729l1.722 8.715zm-1.236-6.344l-1.13 3.261h1.766zm-7.287.114c0 .952 3 1.156 3 3.345 0 2.108-2.215 2.883-3.682 2.883a5.931 5.931 0 01-2.428-.476l.32-1.89c.88.72 3.549.925 3.549-.218s-2.975-1.17-2.975-3.346c0-2.312 2.534-2.788 3.6-2.788a6.106 6.106 0 011.934.367l-.307 1.809c-.918-.512-3.013-.634-3.013.318zm-6.584 6.23l1.344-8.715h2.151l-1.344 8.715zm-5.157 0L7.842 9.664a8.135 8.135 0 01.941.686 6.825 6.825 0 011.981 2.865l.243 1.291 2.051-5.994h2.315l-3.422 8.715zM5.914 8.75l-.1-.03zm-.22-.065l-.048-.013zm.529.17l-.128-.045zm1.491.725q-.1-.062-.2-.119c.064.044.13.082.198.124zM7.2 9.29c-.058-.03-.118-.062-.175-.09.055.033.114.065.173.095zm-.535-.257l-.118-.051z" fill="#494ca3"/><path d="M10.761 13.219l-.724-3.918a.939.939 0 00-1.02-.785h-3.39l-.04.147a8.146 8.146 0 013.192 1.69 6.825 6.825 0 011.982 2.866z" fill="#ffc000"/></svg>