<svg xmlns="http://www.w3.org/2000/svg" width="38.313" height="25.143"><path d="M1.665 0h34.982a1.7 1.7 0 011.666 1.734V23.41a1.7 1.7 0 01-1.666 1.733H1.665A1.7 1.7 0 01-.001 23.41V1.734A1.7 1.7 0 011.665 0z" fill="#353a40"/><path d="M22.688 16.564a1.47 1.47 0 01-.624-.606 2.042 2.042 0 01-.24-1.038 1.863 1.863 0 01.474-1.356 1.765 1.765 0 011.321-.484 1.791 1.791 0 011.336.477 1.821 1.821 0 01.469 1.335 2.232 2.232 0 01-.2 1.022 1.49 1.49 0 01-.592.621 1.924 1.924 0 01-.967.222 2.175 2.175 0 01-.977-.193zm.406-2.417a1.631 1.631 0 000 1.552.726.726 0 001.068 0 1.332 1.332 0 00.19-.826 1.114 1.114 0 00-.2-.734.669.669 0 00-.536-.231.65.65 0 00-.522.239zm-9.912 2.574a1.409 1.409 0 01-.5-.146 1.232 1.232 0 01-.368-.307 1.141 1.141 0 01-.229-.409 2.169 2.169 0 01-.1-.6v-2.118h1.071v2.168a.625.625 0 00.159.454.669.669 0 00.872 0 .63.63 0 00.158-.457v-2.168h1.071v2.118a1.821 1.821 0 01-.1.6 1.278 1.278 0 01-.3.489 1.2 1.2 0 01-.431.3 2.133 2.133 0 01-.751.118 4.773 4.773 0 01-.551-.043zm15.139-.024l-1.3-1.952v1.952h-1.01v-3.555h1l1.309 1.966v-1.966h1.012v3.555zm-9.978 0l-1.3-1.952v1.952h-1.01v-3.555h1l1.308 1.966v-1.966h1.012v3.555zm1.77-.009v-3.549h1.08v3.549zm-8.205-4.981a1.387 1.387 0 01-.387-.888l1.022-.065a.812.812 0 00.134.388.564.564 0 00.474.217.515.515 0 00.355-.111.322.322 0 00.006-.5 1.366 1.366 0 00-.55-.206 2.311 2.311 0 01-1.007-.432.875.875 0 01-.3-.686.948.948 0 01.155-.517 1.031 1.031 0 01.467-.383 2.132 2.132 0 01.855-.139 1.708 1.708 0 011.016.254 1.1 1.1 0 01.416.805l-1.012.061a.56.56 0 00-.17-.349.536.536 0 00-.357-.109.425.425 0 00-.282.081.253.253 0 00-.095.2.2.2 0 00.079.154.874.874 0 00.361.13 4.465 4.465 0 011.009.314 1.069 1.069 0 01.443.395 1.014 1.014 0 01.138.525 1.147 1.147 0 01-.185.631 1.171 1.171 0 01-.517.438 2.064 2.064 0 01-.836.149 1.7 1.7 0 01-1.232-.358zm16.414.29l-1.3-1.953v1.953h-1.01V8.442h1l1.309 1.967V8.442h1.012v3.555zm-3.875 0l-.574-1.087a.849.849 0 00-.195-.273.445.445 0 00-.264-.083h-.095v1.443H22.24V8.442h1.789a2.512 2.512 0 01.761.087.814.814 0 01.425.323 1 1 0 01.161.576 1.017 1.017 0 01-.123.511.98.98 0 01-.34.347 1.292 1.292 0 01-.377.142 1.051 1.051 0 01.28.13 1.069 1.069 0 01.171.188 1.429 1.429 0 01.151.22l.52 1.031zM23.32 9.881h.453a1.511 1.511 0 00.284-.048.289.289 0 00.174-.111.335.335 0 00.068-.207.331.331 0 00-.107-.265.638.638 0 00-.4-.091h-.472zm-4.6 2.116V8.442h2.878v.759h-1.8v.565h1.672v.726h-1.672v.7h1.855v.805zm-2.652 0V9.32h-1.095v-.878h3.265v.878h-1.1v2.677zm-7.865 0V8.442h2.878v.759h-1.8v.565h1.671v.726H9.273v.7h1.853v.805zm-2.167 0l-.609-2.239-.607 2.239H3.767l-.773-3.555h1.02l.367 1.99.538-1.99h1.016l.539 1.988.367-1.988h1.015l-.766 3.555zm28.087 4.762v-8.38h1.2v8.38zm-2.99 0v-8.38h1.2v8.38z" fill="#ecd345"/></svg>