<svg xmlns="http://www.w3.org/2000/svg" width="190.8" height="24.84"><path d="M13.032 24.408c4.572 0 6.984-2.88 6.984-6.48a5.819 5.819 0 00-4.608-5.9 5.334 5.334 0 004.14-5.508c0-3.2-2.34-6.12-6.912-6.12H0v24.008zm-1.508-14.4H5.112v-5.22h6.412a2.584 2.584 0 012.8 2.628 2.557 2.557 0 01-2.8 2.592zm.18 9.972H5.112V14.4H11.7a2.806 2.806 0 013.1 2.808c-.004 1.728-1.156 2.772-3.1 2.772zm27.14 4.86c7.272 0 12.564-5.184 12.564-12.42S46.116 0 38.844 0c-7.236 0-12.528 5.184-12.528 12.42s5.292 12.42 12.528 12.42zm0-4.536c-4.428 0-7.272-3.42-7.272-7.884 0-4.5 2.844-7.884 7.272-7.884s7.308 3.384 7.308 7.884c0 4.464-2.88 7.888-7.308 7.888zm30.6 4.536c7.308 0 10.836-4.068 10.836-10.044V.396h-5.22v14.256c0 3.348-1.908 5.652-5.616 5.652s-5.652-2.3-5.652-5.652V.396h-5.184v14.436c0 5.904 3.528 10.008 10.836 10.008zm40.644-.432V.396h-5.112V15.48L93.852.396h-5.256v24.012h5.112V8.748l11.448 15.66zm19.98.432a11.059 11.059 0 0010.044-5.9l-4.388-2.132a6.439 6.439 0 01-5.656 3.5c-4.356 0-7.524-3.348-7.524-7.884s3.168-7.884 7.524-7.884a6.508 6.508 0 015.656 3.488l4.392-2.16A10.992 10.992 0 00130.072 0c-7.2 0-12.78 5.04-12.78 12.42s5.576 12.42 12.776 12.42zm33.696-.432v-4.5h-11.88v-5.436h11.628v-4.5h-11.628V4.896h11.88v-4.5h-16.992v24.012zm27.036 0l-5.4-9.144a6.891 6.891 0 005.256-7.128c0-4.464-3.06-7.74-8.064-7.74H171.36v24.012h5.112v-8.532h3.744l4.716 8.532zm-8.964-13.032h-5.364v-6.48h5.364c2.052 0 3.6 1.224 3.6 3.24s-1.548 3.24-3.6 3.24z" fill="#ff4252"/></svg>