<svg xmlns="http://www.w3.org/2000/svg" width="46.826" height="61.474"><g fill="#ff6875"><path d="M0 48.624v12.85h46.826v-12.85a5.409 5.409 0 00-5.4-5.4H5.4a5.409 5.409 0 00-5.4 5.4zm3.6 0a1.8 1.8 0 011.8-1.8h1.8V57.87H3.6zm7.2-1.8h4.657l7.95 7.95 7.95-7.95h4.663V57.87H10.806zm32.418 1.8v9.245h-3.6V46.824h1.8a1.8 1.8 0 011.806 1.8zm-16.955-1.8l-2.856 2.856-2.85-2.856zm0 0"/><path d="M36.883 36.02h2.738v-3.6h1.8a5.409 5.409 0 005.4-5.4v-3.6A23.413 23.413 0 000 23.413v3.6a5.409 5.409 0 005.4 5.4h2.731a16.2 16.2 0 0028.752 3.6zm4.539-7.2h-1.9a16.2 16.2 0 00.1-1.8v-3.6a16.2 16.2 0 00-.1-1.8h1.9a1.8 1.8 0 011.8 1.8v3.6a1.8 1.8 0 01-1.8 1.796zM23.413 3.6A19.846 19.846 0 0142.5 18.119a5.405 5.405 0 00-1.082-.109h-2.724a16.209 16.209 0 00-30.563 0H5.4a5.405 5.405 0 00-1.082.109A19.846 19.846 0 0123.413 3.6zm10.342 12.613a12.658 12.658 0 01-10.343 5.4H10.935a12.6 12.6 0 0122.821-5.4zM5.4 28.816a1.8 1.8 0 01-1.8-1.8v-3.6a1.8 1.8 0 011.8-1.8h1.9a16.2 16.2 0 00-.1 1.8v3.6a16.2 16.2 0 00.1 1.8zm5.4-1.8v-1.8h12.613a16.27 16.27 0 0012.08-5.407 12.549 12.549 0 01.527 3.606v3.6a12.533 12.533 0 01-1.218 5.4h-5.987l-1.582-1.582a5.4 5.4 0 01-7.641 0l-2.547 2.547a9.005 9.005 0 0011.77.837v1.8h3.41a12.6 12.6 0 01-21.42-9zm0 0"/></g></svg>