<svg xmlns="http://www.w3.org/2000/svg" width="47.61" height="54.091"><g fill="#ff6875"><path d="M38.409 11.474L35.8 14.826a19.571 19.571 0 11-10.921-4.074L21.207 14.6l2.724 2.6 5.8-6.086 2.6-2.727L29.604 5.8 23.519 0l-2.6 2.727L24.884 6.5a23.8 23.8 0 00-4.778 47.3 24.058 24.058 0 003.75.295 23.814 23.814 0 0014.553-42.621z"/><path d="M26.137 42.422v-2.445c2.9-.324 5.718-2.154 5.718-5.63 0-4.723-4.392-5.264-7.6-5.659-2.051-.245-3.621-.53-3.621-1.772 0-1.727 2.435-1.914 3.482-1.914a4.726 4.726 0 013.775 1.663l.164.271 3.222-1.491-.159-.325a6.359 6.359 0 00-4.983-3.451v-2.153h-3.771v2.143c-3.512.518-5.6 2.467-5.6 5.256 0 4.547 4.129 5.009 7.141 5.347 2.685.317 3.934.98 3.934 2.085 0 2.111-2.924 2.276-3.82 2.276-2 0-3.919-1-4.475-2.317l-.138-.326-3.493 1.483.14.326a7.382 7.382 0 006.317 4.306v2.327z"/></g></svg>