<svg xmlns="http://www.w3.org/2000/svg" width="69.723" height="45.573"><path d="M69.722 23.474v-.039a1.6 1.6 0 00-1.605-1.57h-.421l-6.51-12.584a1.6 1.6 0 00-1.427-.862H48.647l.424-3.36a4.566 4.566 0 00-4.6-5.056H9.978a1.7 1.7 0 00-1.686 1.536l-.346 2.769H27.6a2.239 2.239 0 012.25 2.31 2.385 2.385 0 01-2.371 2.31h-6.558v.01H1.677A1.686 1.686 0 000 10.569a1.583 1.583 0 001.591 1.634h25.482a2.4 2.4 0 012.034 2.444 2.555 2.555 0 01-2.519 2.474H9.02a1.7 1.7 0 00-1.693 1.65 1.6 1.6 0 001.607 1.65h17.36a2.4 2.4 0 012.069 2.449 2.555 2.555 0 01-2.54 2.475H4.233a1.7 1.7 0 00-1.693 1.65 1.6 1.6 0 001.607 1.65H5.59l-.565 5.911a4.566 4.566 0 004.6 5.056h1.246A7.2 7.2 0 0018 45.574a7.686 7.686 0 007.436-5.96h15.546a5.268 5.268 0 003.381-1.268 4.594 4.594 0 003.22 1.268h.256a7.2 7.2 0 007.124 5.96 7.686 7.686 0 007.436-5.96h1.026a5.42 5.42 0 005.285-4.845l1.006-11.141v-.045c0-.015 0-.045.005-.068s.001-.027.001-.041zm-51.637 18.8a4 4 0 01-4.018-4.125 4.264 4.264 0 014.234-4.126 4 4 0 014.017 4.126 4.263 4.263 0 01-4.233 4.124zm36.964 0a4 4 0 01-4.018-4.125 4.264 4.264 0 014.234-4.126 4 4 0 014.017 4.126 4.263 4.263 0 01-4.233 4.124zm10.373-7.716a1.987 1.987 0 01-1.911 1.756H62.4a7.2 7.2 0 00-7.05-5.591 7.687 7.687 0 00-7.342 5.591h-.34a1.4 1.4 0 01-1.054-.443 1.42 1.42 0 01-.348-1.1l2.081-23.052h4.779l-.757 8.392a4.566 4.566 0 004.6 5.056h9.3z" fill="#ff6875"/></svg>